<svg data-v-423bf9ae="" xmlns="http://www.w3.org/2000/svg" viewBox="0 0 395 90" class="iconLeft"><!----><!----><!----><g data-v-423bf9ae="" id="2209755b-de96-4ba1-955a-1d9c5ecf9b12" fill="#23073F" transform="matrix(5.714285714285714,0,0,5.714285714285714,104.39999737058366,13.800000876188278)"><path d="M3.22 10.50L3.22 4.30L5.52 10.50L7.41 10.50L9.70 4.30L9.70 10.50L11.94 10.50L11.94 0.42L9.14 0.42L6.47 7.80L3.78 0.42L0.98 0.42L0.98 10.50ZM13.41 7.28C13.57 9.42 14.87 10.71 17.54 10.71C19.46 10.71 21.42 9.70 21.42 7.57C21.42 5.89 20.38 5.01 18.91 4.59C17.95 4.33 16.94 4.05 16.48 3.86C16.00 3.68 15.85 3.46 15.85 3.08C15.85 2.55 16.39 2.17 17.30 2.17C18.38 2.17 18.77 2.67 18.90 3.40L21.08 3.30C20.94 1.20 19.63 0.21 17.25 0.21C15.41 0.21 13.69 1.19 13.69 3.28C13.69 4.23 14.03 5.35 15.79 5.88C16.39 6.06 17.51 6.36 18.05 6.54C18.84 6.80 19.12 7.07 19.12 7.64C19.12 8.44 18.38 8.75 17.49 8.75C16.32 8.75 15.68 8.36 15.57 7.17L13.41 7.28ZM24.85 5.46C24.85 3.40 25.80 2.17 27.48 2.17C28.57 2.17 29.30 2.81 29.60 3.93L31.79 3.32C31.29 1.16 29.76 0.21 27.48 0.21C24.26 0.21 22.54 2.42 22.54 5.46C22.54 8.50 24.33 10.71 27.55 10.71C29.36 10.71 31.02 10.05 31.78 8.93L31.78 5.11L27.51 5.11L27.51 6.85L29.58 6.85L29.58 8.16C29.18 8.50 28.63 8.75 27.55 8.75C25.87 8.75 24.85 7.52 24.85 5.46ZM38.00 10.50C40.28 10.50 41.79 9.72 41.79 7.59C41.79 6.40 40.99 5.53 39.79 5.24C40.89 4.87 41.38 3.99 41.38 3.04C41.38 1.25 39.90 0.42 37.86 0.42L33.61 0.42L33.61 10.50ZM35.78 2.17L37.42 2.17C38.46 2.17 39.17 2.39 39.17 3.21C39.17 4.02 38.61 4.48 37.59 4.48L35.78 4.48ZM35.78 6.23L37.67 6.23C38.84 6.23 39.54 6.65 39.54 7.59C39.54 8.40 38.95 8.75 37.86 8.75L35.78 8.75ZM42.84 7.28C42.99 9.42 44.30 10.71 46.97 10.71C48.89 10.71 50.85 9.70 50.85 7.57C50.85 5.89 49.81 5.01 48.34 4.59C47.38 4.33 46.37 4.05 45.91 3.86C45.43 3.68 45.28 3.46 45.28 3.08C45.28 2.55 45.82 2.17 46.73 2.17C47.81 2.17 48.20 2.67 48.33 3.40L50.51 3.30C50.37 1.20 49.06 0.21 46.68 0.21C44.84 0.21 43.12 1.19 43.12 3.28C43.12 4.23 43.46 5.35 45.22 5.88C45.82 6.06 46.94 6.36 47.47 6.54C48.27 6.80 48.55 7.07 48.55 7.64C48.55 8.44 47.81 8.75 46.91 8.75C45.75 8.75 45.11 8.36 45.00 7.17L42.84 7.28Z"></path></g><defs data-v-423bf9ae=""><linearGradient data-v-423bf9ae="" gradientTransform="rotate(25)" id="3a03ccc1-972b-44b7-ac4d-8805b1e8c72a" x1="0%" y1="0%" x2="100%" y2="0%"><stop data-v-423bf9ae="" offset="0%" style="stop-color: rgb(233, 13, 202); stop-opacity: 1;"></stop><stop data-v-423bf9ae="" offset="100%" style="stop-color: rgb(21, 54, 241); stop-opacity: 1;"></stop></linearGradient></defs><g data-v-423bf9ae="" id="c78b8253-ba81-4663-b25e-f9716d586d71" transform="matrix(1.5,0,0,1.5,0,0)" stroke="none" fill="url(#3a03ccc1-972b-44b7-ac4d-8805b1e8c72a)"><path d="M30 0C13.458 0 0 13.458 0 30s13.458 30 30 30 30-13.458 30-30S46.542 0 30 0zm-6.259 10.034a1 1 0 1 1 .518 1.932 1 1 0 0 1-.518-1.932zm-9.448 31.191a1 1 0 1 1-.518-1.932 1 1 0 0 1 .518 1.932zM16 18h-1v1a1 1 0 1 1-2 0v-1h-1a1 1 0 1 1 0-2h1v-1a1 1 0 1 1 2 0v1h1a1 1 0 1 1 0 2zm8.259 33.966a1 1 0 1 1-.518-1.932 1 1 0 0 1 .518 1.932zM27 34h-1v1a1 1 0 1 1-2 0v-1h-1a1 1 0 1 1 0-2h1v-1a1 1 0 1 1 2 0v1h1a1 1 0 1 1 0 2zm8-28h1V5a1 1 0 1 1 2 0v1h1a1 1 0 1 1 0 2h-1v1a1 1 0 1 1-2 0V8h-1a1 1 0 1 1 0-2zm4.259 43.966a1 1 0 1 1-.518-1.932 1 1 0 0 1 .518 1.932zM42 21h-1.586L38 23.414V25a1 1 0 1 1-2 0v-1.586L33.586 21H32a1 1 0 1 1 0-2h1.586L36 16.586V15a1 1 0 1 1 2 0v1.586L40.414 19H42a1 1 0 1 1 0 2zm7 20h-1v1a1 1 0 1 1-2 0v-1h-1a1 1 0 1 1 0-2h1v-1a1 1 0 1 1 2 0v1h1a1 1 0 1 1 0 2zm1.259-13.034a1 1 0 1 1-.518-1.932 1 1 0 0 1 .518 1.932z" fill-rule="evenodd"></path></g><!----></svg>